<svg width="200" height="270" xmlns="http://www.w3.org/2000/svg" xmlns:xlink="http://www.w3.org/1999/xlink"><defs><rect id="a" width="200" height="270" rx="12"/><linearGradient x1="50%" y1="99.82%" x2="50%" y2="0%" id="b"><stop stop-color="#3429C1" offset="0%"/><stop stop-color="#002B7A" offset="100%"/></linearGradient><radialGradient cx="0%" cy="78.5%" fx="0%" fy="78.5%" r="91.03%" gradientTransform="scale(1 .74074) rotate(-25.01 .62 .92)" id="d"><stop stop-color="#50FAFF" stop-opacity=".39" offset="0%"/><stop stop-color="#DC00FF" stop-opacity="0" offset="100%"/></radialGradient></defs><g fill="none" fill-rule="evenodd"><mask id="c" fill="#fff"><use xlink:href="#a"/></mask><path fill="url(#b)" mask="url(#c)" d="M0 0h200v270H0z"/><path fill="url(#d)" opacity=".81" mask="url(#c)" d="M0 0h200v270H0z"/><g style="mix-blend-mode:lighten" mask="url(#c)"><path d="M-1.67 189.8c112.37-22.25 187.51-51.42 203.65-87.34v58.03L-1.67 196.75c-16.74-1.33-16.73-3.64 0-6.96z" fill="#7F12FF"/><path d="M-1.67 196.69c92.49-18.06 175.83-37.9 203.65-58.8v27.77l-203.65 37.7c-16.7-1.19-16.7-3.4 0-6.67z" fill="#1218FF"/><path d="M-1.67 202.73c80.03-14.13 147.9-29.58 203.65-46.35v18.07L-1.68 209.32v-6.59z" fill="#1253FF"/><path d="M-2.64 208.46l203.6-37v10.9a31853.3 31853.3 0 0 0-203.6 33.33v-7.23z" fill="#43DB1B"/><path d="M-2.73 228.24l203.69-35.43v38.73c-48.58-14.74-116.47-13.86-203.67 1.62l-.02-4.92z" fill="#FF1212"/><path d="M-2.72 222.88l203.68-38.17v27.62c-57.57-3.45-125.46 1.86-203.66 15.92l-.02-5.37z" fill="#FF6B12"/><path d="M-2.7 215.69l203.66-34.24v11.7c-39.4 3.62-107.3 13.21-203.7 29.73l.04-7.2z" fill="#FFBD12"/></g></g></svg>
