<svg viewBox="0 0 496 160" fill="none" xmlns="http://www.w3.org/2000/svg">
  <g clip-path="url(#clip0_404_6)">
    <rect width="496" height="160" rx="8" fill="#fff"/>
    <path fill="#1A1C4E" d="M0 0h496v160H0z"/>
    <g filter="url(#filter0_f_404_6)">
      <circle cx="87" cy="-7" r="124" fill="#5A2B71" fill-opacity=".7"/>
    </g>
    <g filter="url(#filter1_f_404_6)">
      <circle cx="158.5" cy="167.5" r="77.5" fill="#2B7158" fill-opacity=".8"/>
    </g>
    <g filter="url(#filter2_f_404_6)">
      <circle cx="398" cy="-6" r="125" fill="#2B7168" fill-opacity=".5"/>
    </g>
    <path d="M212 106.5c0-1.4-.9-2.7-2.2-3.2l-22-9c-.3 0-.3-.4 0-.5 4.6-1 24.2-6.1 24.2-20.5 0-16.3-7-15.6-22-15.6s-15 15.4-15 15.6v32.1c0 2.6 2 4.7 4.6 4.6h5.5c2.9 0 4.8-3 3.5-5.7l-8-16.5c-.1-.2.3-.5.5-.2 1.7 2.7 8.6 14.7 10.6 18.9a6.2 6.2 0 0 0 5.5 3.4h11.3a3.5 3.5 0 0 0 3.5-3.4ZM185.4 74v-3a10 10 0 0 1 9.8-10.1h2.8a10 10 0 0 1 9.8 10.2v3A10 10 0 0 1 198 84h-2.8a10 10 0 0 1-9.8-10.2ZM243 57.3h-13.7a13 13 0 0 0-13 13v37.5c0 1 .8 1.8 1.8 1.8h7.2a3.2 3.2 0 0 0 3.2-2.8c0-.5 0-1-.2-1.5l-6.5-17.7a1 1 0 0 1 1-1.2h19.2a.5.5 0 0 1 .5.6l-6.6 18.3a3.2 3.2 0 0 0 3 4.3h6.5a2.5 2.5 0 0 0 2.3-1.6l.2-.9V62.2a4.9 4.9 0 0 0-5-5ZM242 73a9.4 9.4 0 0 1-9.5 9.4h-2.7a9.4 9.4 0 0 1-9.4-9.4v-2.7a9.4 9.4 0 0 1 9.4-9.4h2.7a9.5 9.5 0 0 1 9.5 9.4V73Zm-113.4 1.1V62.6c0-3-2.6-5.6-5.7-5.6h-17.2A15.7 15.7 0 0 0 90 72.6v30.9a6.5 6.5 0 0 0 6.6 6.5H125c2 0 3.6-1.5 3.6-3.5V90.7a1.3 1.3 0 0 0-2-1l-20.8 15a2.7 2.7 0 0 1-4.3-2V63.8a2.6 2.6 0 0 1 2.8-2.7c.4 0 1 .2 1.3.4L127 75.1a1 1 0 0 0 1.7-.9ZM163 57a7.6 7.6 0 0 1 7.5 7.5v40.3a5.2 5.2 0 0 1-5.3 5.2h-27a5.3 5.3 0 0 1-5.2-5.2v-35A12.9 12.9 0 0 1 146 57h1.6a1 1 0 0 1 1 1v.4L138 90.8c-1.4 4 1.5 7.4 5.8 7.4h16.1c4.3 0 7.2-3.3 5.8-7.4L155 58.4a1 1 0 0 1 .5-1.3l.5-.1h7ZM277.4 48.5c0 2 .4 3.8 1.4 5.3a9 9 0 0 0 3.6 3.5 11 11 0 0 0 5.1 1.2A14.5 14.5 0 0 0 294 57v-6h-.5l-2 4c-1.1 1-2.4 1.5-4 1.5-1.1 0-2.1-.4-3-1a6.8 6.8 0 0 1-2-3 13 13 0 0 1-.8-4.7c0-2.6.5-4.7 1.5-6.2s2.3-2.3 4-2.3a5.5 5.5 0 0 1 3.8 1.4l2.1 3.6h.5v-6c-1.8-.6-3.7-1-5.5-1-2 0-3.8.5-5.4 1.4-1.6.8-2.9 2-3.8 3.7-1 1.7-1.5 3.7-1.5 6ZM310.9 56h-1.4l-.1-.1V44.5l-.5-.2-5 2.5v.4l1.9 1.2v6.9l-2.1.3c-1 0-1.5-.2-2-.6-.3-.5-.5-1.2-.5-2.3v-8l-.4-.2-5.1 2.5v.4l2 1.2v6c0 1.2.2 2.2.9 2.8.6.6 1.5 1 2.6 1 .8 0 1.6-.2 2.3-.6l2.3-1.7V58h5v-2ZM317.5 48.2h1c1.4 0 2.7.1 3.9.5v-4l-1-.2c-1 0-2.3.8-4 2.3l-.4-2.2-.4-.2-4.7 2.3v.4l2 1.3v7.5l-.1.1h-1.4v2h7.1v-2h-1.9l-.1-.1v-7.7ZM335.5 56h-1.3l-.2-.1v-6c0-1.8-.4-3.2-1-4-.8-1-2-1.4-3.6-1.4-2 0-3.8.8-5.3 2.3l.6 1.2a6.3 6.3 0 0 1 3.2-1.2c.9 0 1.5.3 2 .8.3.6.5 1.4.5 2.4v.6a11 11 0 0 0-5.3 1.6c-1 .8-1.6 1.8-1.6 3 0 1.1.3 1.9 1 2.4.5.5 1.2.7 2 .7 1.3 0 2.5-.4 4-1.4V58h5v-2Zm-5-.2-1.7.3c-.6 0-1-.1-1.3-.4-.4-.2-.5-.7-.5-1.2 0-.7.2-1.3.8-1.7.5-.3 1.4-.6 2.6-.7v3.7ZM338.2 54.2c0 1.5.2 2.6.8 3.2.6.6 1.5 1 2.7 1 .8 0 1.6-.2 2.5-.6a7 7 0 0 0 2.1-1.3l-.6-1a5 5 0 0 1-2.3.6c-.6 0-1-.2-1.3-.7-.2-.5-.4-1.4-.4-2.6V47h4.2v-2h-4.2v-3.7h-.4l-5 5.3v.4h1.7l.2.1v7.1ZM358.1 55.4c-1 .6-2 .8-3 .8-1.2 0-2.2-.4-2.9-1.3-.7-.8-1.1-2-1.2-3.5h7.7l.2-1.7c0-1.5-.5-2.8-1.4-3.7a5 5 0 0 0-3.8-1.5A6.3 6.3 0 0 0 348 48c-.5 1.1-.8 2.3-.8 3.6a7 7 0 0 0 .8 3.5 6 6 0 0 0 2.4 2.4c1 .6 2.1.8 3.3.8a8 8 0 0 0 5-1.8l-.6-1Zm-7-5.6c0-1.1.2-2 .6-2.6.4-.6 1-.9 1.6-.9.7 0 1.1.3 1.5.8.4.5.6 1.4.6 2.7H351ZM361.3 56.1c0 .7.2 1.2.7 1.7a2.2 2.2 0 0 0 3.3 0c.4-.5.7-1 .7-1.7 0-.6-.3-1.1-.7-1.6-.5-.4-1-.7-1.7-.7-.6 0-1.2.3-1.6.7-.5.5-.7 1-.7 1.6ZM277.4 81.5c0 2 .4 3.8 1.4 5.3a9 9 0 0 0 3.6 3.5 11 11 0 0 0 5.1 1.2A14.5 14.5 0 0 0 294 90v-6h-.5l-2 4c-1.1 1-2.4 1.5-4 1.5-1.1 0-2.1-.4-3-1a6.8 6.8 0 0 1-2-3 13 13 0 0 1-.8-4.7c0-2.6.5-4.7 1.5-6.2s2.3-2.3 4-2.3a5.5 5.5 0 0 1 3.8 1.4l2.1 3.6h.5v-6c-1.8-.6-3.7-1-5.5-1-2 0-3.8.5-5.4 1.4-1.6.8-2.9 2-3.8 3.7-1 1.7-1.5 3.7-1.5 6ZM296.3 84.7c0 1.3.3 2.5.8 3.5s1.3 1.7 2.2 2.3c1 .6 2.1.8 3.4.8 1.3 0 2.4-.3 3.5-.9 1-.5 1.8-1.4 2.4-2.5.5-1 .8-2.3.8-3.7 0-1.3-.2-2.5-.8-3.5a6 6 0 0 0-5.5-3.2c-1.4 0-2.5.4-3.6 1-1 .6-1.8 1.5-2.4 2.5a8 8 0 0 0-.8 3.7Zm9.4.8c0 1.2-.3 2.2-.7 3-.4.6-1 1-1.7 1-.6 0-1.2-.3-1.7-.8a5 5 0 0 1-1.1-2.1c-.3-1-.4-2-.4-3.1 0-1.3.2-2.3.6-3 .4-.7 1-1 1.7-1s1.2.2 1.7.7a5 5 0 0 1 1.1 2.2c.3.9.5 1.9.5 3ZM326.4 89H325l-.2-.1V81c0-1.2-.3-2-1-2.7a4 4 0 0 0-2.7-.9c-.8 0-1.6.2-2.3.4l-2.5 1.5-.4-1.9-.4-.2-4.6 2.4v.4l2 1.2V89l-.2.1h-1.4v2h6.7v-2h-1.4l-.2-.1v-8.3c1-.3 1.8-.4 2.4-.4.9 0 1.5.2 2 .7.3.4.5 1.2.5 2.4V89l-.2.1h-1.4v2h6.7v-2ZM343 89h-1.4l-.2-.1V81c0-1.2-.3-2-1-2.7a4 4 0 0 0-2.7-.9c-.8 0-1.6.2-2.3.4l-2.5 1.5-.4-1.9-.4-.2-4.7 2.4v.4l2 1.2V89l-.1.1h-1.4v2h6.6v-2h-1.4l-.1-.1v-8.3c1-.3 1.8-.4 2.4-.4.9 0 1.5.2 1.9.7.4.4.6 1.2.6 2.4V89l-.2.1h-1.4v2h6.7v-2ZM355.4 88.4c-1 .6-2 .8-2.9.8-1.3 0-2.3-.4-3-1.3-.7-.8-1-2-1.2-3.5h7.7l.2-1.7c0-1.5-.5-2.8-1.4-3.7a5 5 0 0 0-3.8-1.5 6.3 6.3 0 0 0-5.7 3.5c-.5 1.1-.8 2.3-.8 3.6a7 7 0 0 0 .8 3.5 6 6 0 0 0 2.4 2.4c1 .6 2.1.8 3.3.8a8 8 0 0 0 5-1.8l-.6-1Zm-7-5.6c0-1.1.2-2 .6-2.6.4-.6 1-.9 1.6-.9.7 0 1.2.3 1.5.8.4.5.6 1.4.6 2.7h-4.4ZM357.9 84.7c0 2 .5 3.6 1.7 4.8a6.1 6.1 0 0 0 4.6 1.8 7 7 0 0 0 4.9-1.8l-.6-1-1.3.5-1.4.2c-1.2 0-2.2-.5-3-1.5-.8-1-1.2-2.3-1.2-4.1 0-1.4.2-2.5.7-3.2.4-.7 1-1 1.8-1 .5 0 1 .2 1.7.6l2.3 3.2h.4v-5a11 11 0 0 0-3.6-.7c-1.4 0-2.7.4-3.7 1s-2 1.5-2.5 2.5a7.7 7.7 0 0 0-.8 3.7ZM371.6 87.2c0 1.5.3 2.6.9 3.2.5.6 1.4 1 2.6 1 .8 0 1.7-.2 2.5-.6a7 7 0 0 0 2.1-1.3l-.5-1a5 5 0 0 1-2.3.6c-.7 0-1.1-.2-1.4-.7-.2-.5-.3-1.4-.3-2.6V80h4v-2h-4v-3.7h-.4l-5.1 5.3v.4h1.7l.2.1v7.1ZM381.7 89.1c0 .7.2 1.2.7 1.7a2.2 2.2 0 0 0 3.3 0c.4-.5.6-1 .6-1.7 0-.6-.2-1.1-.6-1.6-.5-.4-1-.7-1.7-.7-.6 0-1.2.3-1.6.7-.5.5-.7 1-.7 1.6ZM277.4 121.8v2.2h8.8v-2.2H284l-.1-.1v-15.5l2.7-1.9v-.5h-9.4v.5l2.8 1.9v15.5l-.2.1h-2.3ZM303.2 122h-1.4l-.2-.1V114c0-1.2-.3-2-1-2.7a4 4 0 0 0-2.7-.9c-.8 0-1.6.2-2.3.4l-2.5 1.5-.4-1.9-.4-.2-4.7 2.4v.4l2 1.2v7.6l-.1.1H288v2h6.6v-2h-1.4l-.1-.1v-8.3c1-.3 1.8-.4 2.4-.4.9 0 1.5.2 1.9.7.4.4.6 1.2.6 2.4v5.6l-.2.1h-1.4v2h6.7v-2ZM304.7 117.7c0 2 .5 3.6 1.7 4.8a6.1 6.1 0 0 0 4.6 1.8 7 7 0 0 0 5-1.8l-.7-1-1.3.5-1.4.2c-1.2 0-2.1-.5-3-1.5-.7-1-1.1-2.3-1.1-4.1 0-1.4.2-2.5.6-3.2.4-.7 1-1 1.8-1 .5 0 1.1.2 1.7.6l2.4 3.2h.4v-5a11 11 0 0 0-3.7-.7c-1.4 0-2.6.4-3.7 1-1 .6-1.9 1.5-2.4 2.5a7.7 7.7 0 0 0-1 3.7ZM317.2 122v2h6.7v-2h-1.4l-.2-.1v-20l-.4-.2-5.1 2.5v.3l2 1.3v16l-.2.2h-1.4ZM340 122h-1.5l-.1-.1v-11.4l-.4-.2-5.2 2.5v.4l2 1.2v6.9l-2.1.3c-.9 0-1.5-.2-1.9-.6-.3-.5-.5-1.2-.5-2.3v-8l-.5-.2-5 2.5v.4l1.9 1.2v6c0 1.2.3 2.2.9 2.8.6.6 1.5 1 2.7 1 .8 0 1.5-.2 2.2-.6l2.3-1.7v1.9h5.1v-2ZM355.9 122h-1.4l-.2-.1v-20l-.4-.2-5.1 2.5v.3l2 1.3v5.2a6.3 6.3 0 0 0-5.8.5c-1 .7-1.9 1.6-2.4 2.7a8.4 8.4 0 0 0-.9 3.8c0 1.1.2 2.2.6 3.2a5 5 0 0 0 1.7 2.3 4 4 0 0 0 2.6.8c.7 0 1.3-.1 2-.4l2.2-1.5v1.6h5v-2Zm-5.1-.6c-.7.2-1.4.2-2 .2-1 0-1.9-.3-2.4-1.1a6 6 0 0 1-.9-3.5c0-1.5.2-2.6.7-3.4.5-.8 1.2-1.2 2.2-1.2 1 0 1.8.5 2.4 1.6v7.4ZM368.6 121.4c-1 .6-2 .8-3 .8-1.2 0-2.2-.4-3-1.3-.6-.8-1-2-1.1-3.5h7.7l.1-1.7c0-1.5-.4-2.8-1.4-3.7a5 5 0 0 0-3.7-1.5 6.3 6.3 0 0 0-5.7 3.5c-.6 1.1-.8 2.3-.8 3.6a7 7 0 0 0 .8 3.5 6 6 0 0 0 2.4 2.4c1 .6 2 .8 3.3.8a8 8 0 0 0 5-1.8l-.6-1Zm-7.1-5.6c0-1.1.3-2 .7-2.6.3-.6.9-.9 1.6-.9.6 0 1.1.3 1.5.8.4.5.6 1.4.6 2.7h-4.4ZM371.8 122.1c0 .7.2 1.2.7 1.7a2.2 2.2 0 0 0 3.3 0c.4-.5.6-1 .6-1.7 0-.6-.2-1.1-.6-1.6-.5-.4-1-.7-1.7-.7-.6 0-1.2.3-1.6.7-.5.5-.7 1-.7 1.6Z" fill="#fff"/>
  </g>
  <rect x="1.5" y="1.5" width="493" height="157" rx="6.5" stroke="#fff" stroke-opacity=".8" stroke-width="5"/>
  <defs>
    <filter id="filter0_f_404_6" x="-161" y="-255" width="496" height="496" filterUnits="userSpaceOnUse" color-interpolation-filters="sRGB">
      <feFlood flood-opacity="0" result="BackgroundImageFix"/>
      <feBlend in="SourceGraphic" in2="BackgroundImageFix" result="shape"/>
      <feGaussianBlur stdDeviation="62" result="effect1_foregroundBlur_404_6"/>
    </filter>
    <filter id="filter1_f_404_6" x="-43" y="-34" width="403" height="403" filterUnits="userSpaceOnUse" color-interpolation-filters="sRGB">
      <feFlood flood-opacity="0" result="BackgroundImageFix"/>
      <feBlend in="SourceGraphic" in2="BackgroundImageFix" result="shape"/>
      <feGaussianBlur stdDeviation="62" result="effect1_foregroundBlur_404_6"/>
    </filter>
    <filter id="filter2_f_404_6" x="149" y="-255" width="498" height="498" filterUnits="userSpaceOnUse" color-interpolation-filters="sRGB">
      <feFlood flood-opacity="0" result="BackgroundImageFix"/>
      <feBlend in="SourceGraphic" in2="BackgroundImageFix" result="shape"/>
      <feGaussianBlur stdDeviation="62" result="effect1_foregroundBlur_404_6"/>
    </filter>
    <clipPath id="clip0_404_6">
      <rect width="496" height="160" rx="8" fill="#fff"/>
    </clipPath>
  </defs>
</svg>
