<svg viewBox="0 0 496 160" fill="none" xmlns="http://www.w3.org/2000/svg">
  <rect width="496" height="160" rx="8" fill="#fff"/>
  <rect x="3.5" y="3.5" width="489" height="153" rx="4.5" fill="#1D3557" stroke="#FF70A6" stroke-width="7"/>
  <path d="m55.3 72.2-1.3-1-2.4-1.2a21.6 21.6 0 0 0-6.4-1.5c-2 0-3.5.4-4.5 1.1-1 .8-1.5 1.8-1.5 3.2 0 1 .3 1.8 1 2.4.6.6 1.6 1.1 2.8 1.5 1.3.5 3 1 4.8 1.4 2.5.6 4.6 1.4 6.4 2.2 1.9.9 3.3 2 4.2 3.4 1 1.4 1.5 3.2 1.5 5.5 0 2-.4 3.8-1.1 5.2a9.3 9.3 0 0 1-3 3.5c-1.4.9-2.9 1.5-4.5 2a27.6 27.6 0 0 1-21-4.3l3.1-6.4c.3.4.9.8 1.7 1.3a28.3 28.3 0 0 0 6.8 2.8c1.4.4 2.8.6 4.2.6 2 0 3.4-.4 4.5-1 1-.7 1.5-1.7 1.5-3 0-1-.4-2-1.2-2.6-.8-.6-2-1.2-3.4-1.6L42.4 84a33 33 0 0 1-6-2.2 9 9 0 0 1-3.5-3.2 9 9 0 0 1-1.2-4.8c0-2.6.6-4.7 1.8-6.4 1.2-1.8 2.9-3.1 5-4 2-1 4.4-1.4 7-1.4a24.4 24.4 0 0 1 13.1 4.2l-3.3 6Z" fill="url(#paint0_linear_404_7)"/>
  <path d="M92.2 68.8h-12V100H73V68.8H61v-6.4h31.2v6.4Z" fill="url(#paint1_linear_404_7)"/>
  <path d="M110.8 100.3a17.5 17.5 0 0 1-13.3-6 21 21 0 0 1-5-13.1 18.8 18.8 0 0 1 5.2-13.3 18.2 18.2 0 0 1 13.3-5.8c2.7 0 5.2.6 7.4 1.6 2.3 1.1 4.2 2.6 5.8 4.4a21 21 0 0 1 5 13.2 19 19 0 0 1-11 17.4c-2.3 1-4.7 1.6-7.4 1.6ZM100 81.2a15.2 15.2 0 0 0 2.9 8.8 11 11 0 0 0 3.4 2.8c1.4.7 3 1 4.7 1 1.7 0 3.3-.4 4.7-1 1.4-.8 2.5-1.8 3.4-3a14.6 14.6 0 0 0 2-13.3c-.4-1.5-1.2-2.8-2.1-4-1-1.2-2-2.1-3.5-2.8-1.3-.7-2.8-1-4.5-1a10 10 0 0 0-8.2 3.9 13.7 13.7 0 0 0-2.8 8.6Z" fill="url(#paint2_linear_404_7)"/>
  <path d="M133.5 100V62.4h16c1.7 0 3.3.3 4.7 1a13.4 13.4 0 0 1 6.3 6.9c.6 1.5 1 3 1 4.6a13 13 0 0 1-5.6 10.7 10.5 10.5 0 0 1-6.2 1.8h-8.9V100h-7.3Zm7.3-19h8.5a4 4 0 0 0 2.4-.8c.7-.5 1.2-1.2 1.7-2 .4-1 .6-2.1.6-3.3a7 7 0 0 0-.7-3.4 4.8 4.8 0 0 0-4.3-2.7h-8.2V81Z" fill="url(#paint3_linear_404_7)"/>
  <path d="M201.7 68.8h-12V100h-7.2V68.8h-12v-6.4h31.2v6.4Z" fill="url(#paint4_linear_404_7)"/>
  <path d="M236.7 62.4V100h-7.2V84h-17.1v16h-7.3V62.4h7.3v15.2h17V62.4h7.3Z" fill="url(#paint5_linear_404_7)"/>
  <path d="M269.4 93.6v6.4h-26.1V62.4h25.6v6.4h-18.3v9h15.8v6h-15.8v9.8h18.8Z" fill="url(#paint6_linear_404_7)"/>
  <path d="M315.5 90.3c0 2.1-.6 4-1.7 5.4-1 1.4-2.5 2.4-4.4 3.2a16 16 0 0 1-6 1.1h-18.2V62.4h20.1c1.8 0 3.3.4 4.6 1.4a10.3 10.3 0 0 1 2.6 13.3 8.4 8.4 0 0 1-4 3.6 9.5 9.5 0 0 1 7 9.6Zm-7.4-1.4c0-1-.2-1.8-.6-2.5-.4-.8-.9-1.4-1.6-1.8-.6-.5-1.3-.7-2.2-.7h-11.2v9.9h10.8c1 0 1.7-.2 2.4-.6a5 5 0 0 0 2.4-4.3Zm-15.6-20.3v9.5h9.7c.8 0 1.6-.2 2.3-.6.6-.4 1.2-1 1.6-1.6.4-.7.6-1.6.6-2.6a5 5 0 0 0-.6-2.5 4 4 0 0 0-3.5-2.2h-10.1Z" fill="url(#paint7_linear_404_7)"/>
  <path d="M335.8 100.3c-3 0-5.5-.5-7.7-1.5-2-1-3.7-2.4-5-4.2a18.3 18.3 0 0 1-2.9-6c-.6-2.3-.9-4.6-.9-7V62.4h7.4v19.2c0 1.5 0 3 .4 4.5.3 1.5.8 2.8 1.5 4 .7 1.1 1.7 2 2.8 2.7 1.2.7 2.6 1 4.4 1 1.7 0 3.2-.3 4.4-1A7.6 7.6 0 0 0 343 90c.7-1.2 1.2-2.5 1.5-4 .3-1.4.5-3 .5-4.4V62.4h7.3v19.2c0 2.5-.4 5-1 7.2-.6 2.3-1.6 4.3-3 6-1.2 1.7-3 3-5 4s-4.6 1.5-7.5 1.5Z" fill="url(#paint8_linear_404_7)"/>
  <path d="m380.7 72.2-1.4-1L377 70a21.5 21.5 0 0 0-6.3-1.5c-2 0-3.5.4-4.5 1.1-1 .8-1.5 1.8-1.5 3.2 0 1 .3 1.8 1 2.4.6.6 1.5 1.1 2.8 1.5 1.3.5 2.9 1 4.8 1.4 2.5.6 4.6 1.4 6.4 2.2 1.8.9 3.2 2 4.2 3.4s1.5 3.2 1.5 5.5c0 2-.4 3.8-1.1 5.2A9.3 9.3 0 0 1 381 98c-1.3.9-2.8 1.5-4.5 2a27.6 27.6 0 0 1-21-4.3l3.2-6.4c.3.4.9.8 1.7 1.3a28.3 28.3 0 0 0 6.7 2.8c1.4.4 2.8.6 4.2.6 2 0 3.5-.4 4.5-1 1-.7 1.6-1.7 1.6-3 0-1-.4-2-1.2-2.6-.9-.6-2-1.2-3.4-1.6l-5.2-1.6a33 33 0 0 1-6-2.2 9 9 0 0 1-3.5-3.2 9 9 0 0 1-1.1-4.8c0-2.6.6-4.7 1.8-6.4 1.2-1.8 2.9-3.1 5-4 2-1 4.4-1.4 6.9-1.4a24.4 24.4 0 0 1 13.1 4.2l-3.2 6Z" fill="url(#paint9_linear_404_7)"/>
  <path d="M433.5 53c.2 0 5.9-2.5 13.5-1.7 5.8.7 12.5 2.7 14.6 5.7l.5.7v.6c1.2 3 1.7 6.6 1.8 7.7.4.1.7.3.7.6l1.3 12.1c0 .2-.1.4-.3.5h-.2l.8 17c-4.4.6-11.8.6-13.2.6h-.1l-1.2-.5c-9.7-4-13.3-5.3-16.6-5.3l-10-.2 3.8-12c0-.2.1-.3.2-.3l5.8-1.1s4.6-.4 11.7-.4h6.4c7.3.3 10.5.8 11.8 1l-1.2-11h-.1a137.8 137.8 0 0 0-27.3-1.7c-1 0-2 .2-2.9.6l-3.4 1.3c-1 .4-1.7 1.2-2 2.1l-7.3 21.9c-.4 1-1.4 1.8-2.5 1.8l-14.1-.4a.3.3 0 0 1-.3-.3v-7c0-.1.1-.3.3-.3l14.3-1.8 6.8-19.4c1-2.8 3-5 5.6-6.3l3.2-1.6c1-.5 2.7-.7 5.5-.7 2.9 0 6.7.3 10.4.5 5.3.4 8.8 1.1 10.5 1.5l-.1-.3a25 25 0 0 0-13.3-4.5 27.8 27.8 0 0 0-13 1.6c-1.4.7-27.6 14.8-28.6 15.2-.3.2-.7.7-1 1.3l.2-.2 17.3-8.5h.4c0 .2.1.3 0 .4l-2.8 8.7-.2.2-16.8 6.1c-.4 1.3-.5 2.3-.5 2.6v.1l-.3 20 .9.6 1.7.4v-1.7c0-1.6.3-4.5 1.4-4.5 1 0 1.3 2.7 1.3 4.4v2.5l14.6 3.5v-2.5c0-3.3 1-6.8 2.7-6.8 1.7 0 2.7 3.5 2.7 6.8v3.7l4.8 1.2c1 .2 1.9.3 2.8.2h.9l19.8-1 10.5-.9v-.5c-1.4-.7-6.7-3.2-14.9-6.6-9.5-4-13-5.2-15.9-5.3l-10-.2s-.2 0-.2-.2v-.3l.2-.9 10.2.2a52 52 0 0 1 16.2 5.3l1.2.5h.5c1.6 0 9.3 0 13.7-.6v2.6c-.3-.4-.6-.6-1-.6-.9 0-1.5 1-1.5 2.4 0 1.3.6 2.3 1.5 2.3.4 0 .7-.2 1-.6v3c0 .2-.2.5-.5.5l-10.9.8-3 .2c-.5.9-1 1.1-1.4 1.1h-2.7c-.4 0-.8-.3-1.2-.8l-11.6.6h-.8a10.4 10.4 0 0 1-3.2-.2l-2-.5c-.4.8-.9 1.5-1.7 1.5h-3.5c-1 0-1.9-1.4-2.3-3.3l-12.3-3c-.2.4-.5.6-.8.6h-3.2c-.6 0-1-.8-1.1-1.8l-2.3-.5-.2-.1-1.2-.9a.5.5 0 0 1-.2-.4l.3-20.2s0-1.4.5-3l1.5-5.9c.2-.4 1-2.3 2-2.7A3203.9 3203.9 0 0 0 433.5 53Zm9.8 53c.3 0 .5.3.5.6 0 .2-.2.5-.5.5a.5.5 0 0 1-.5-.5c0-.3.2-.6.5-.6Zm14.6-1.7v1.6l-6.6.4v-1.8l6.6-.2Zm6.2.5c.2 0 .4.2.4.5s-.2.5-.4.5c-.3 0-.5-.2-.5-.5s.2-.5.5-.5Zm-22.7-4.4c1.4 0 2.5 1 2.5 2.4 0 1.3-1.1 2.3-2.5 2.3-1.3 0-2.4-1-2.4-2.3 0-1.3 1.1-2.4 2.4-2.4Zm24.3-.8c.6 0 1.2.8 1.2 2 0 1-.6 2-1.2 2-.7 0-1.2-1-1.2-2 0-1.2.5-2 1.2-2Zm-24.3 2.6c-.3 0-.6.2-.6.6 0 .3.3.5.6.5.4 0 .6-.2.6-.5 0-.4-.2-.6-.6-.6Zm13.5-.8c.4 0 .7.3.7.7 0 .5-.3.8-.7.8-.4 0-.7-.3-.7-.8 0-.4.3-.7.7-.7Zm10.9-.5c-.2 0-.4.3-.4.7 0 .3.2.6.4.6s.3-.3.3-.6c0-.4-.1-.7-.3-.7Zm-23.2-32.5a186.3 186.3 0 0 1 20 1.3c.4 0 .7.4.8.9l.6 5.2v.1c0 .3-.2.5-.5.5a135.3 135.3 0 0 0-15.3-.7H441a.5.5 0 0 1-.5-.5l-.3-5.7c0-.2 0-.5.2-.7l.8-.4h1.4Z" fill="url(#paint10_linear_404_7)"/>
  <defs>
    <linearGradient id="paint0_linear_404_7" x1="241.5" y1="23" x2="241.5" y2="140" gradientUnits="userSpaceOnUse">
      <stop stop-color="#F857A6"/>
      <stop offset="1" stop-color="#FF5858"/>
    </linearGradient>
    <linearGradient id="paint1_linear_404_7" x1="241.5" y1="23" x2="241.5" y2="140" gradientUnits="userSpaceOnUse">
      <stop stop-color="#F857A6"/>
      <stop offset="1" stop-color="#FF5858"/>
    </linearGradient>
    <linearGradient id="paint2_linear_404_7" x1="241.5" y1="23" x2="241.5" y2="140" gradientUnits="userSpaceOnUse">
      <stop stop-color="#F857A6"/>
      <stop offset="1" stop-color="#FF5858"/>
    </linearGradient>
    <linearGradient id="paint3_linear_404_7" x1="241.5" y1="23" x2="241.5" y2="140" gradientUnits="userSpaceOnUse">
      <stop stop-color="#F857A6"/>
      <stop offset="1" stop-color="#FF5858"/>
    </linearGradient>
    <linearGradient id="paint4_linear_404_7" x1="241.5" y1="23" x2="241.5" y2="140" gradientUnits="userSpaceOnUse">
      <stop stop-color="#F857A6"/>
      <stop offset="1" stop-color="#FF5858"/>
    </linearGradient>
    <linearGradient id="paint5_linear_404_7" x1="241.5" y1="23" x2="241.5" y2="140" gradientUnits="userSpaceOnUse">
      <stop stop-color="#F857A6"/>
      <stop offset="1" stop-color="#FF5858"/>
    </linearGradient>
    <linearGradient id="paint6_linear_404_7" x1="241.5" y1="23" x2="241.5" y2="140" gradientUnits="userSpaceOnUse">
      <stop stop-color="#F857A6"/>
      <stop offset="1" stop-color="#FF5858"/>
    </linearGradient>
    <linearGradient id="paint7_linear_404_7" x1="241.5" y1="23" x2="241.5" y2="140" gradientUnits="userSpaceOnUse">
      <stop stop-color="#F857A6"/>
      <stop offset="1" stop-color="#FF5858"/>
    </linearGradient>
    <linearGradient id="paint8_linear_404_7" x1="241.5" y1="23" x2="241.5" y2="140" gradientUnits="userSpaceOnUse">
      <stop stop-color="#F857A6"/>
      <stop offset="1" stop-color="#FF5858"/>
    </linearGradient>
    <linearGradient id="paint9_linear_404_7" x1="241.5" y1="23" x2="241.5" y2="140" gradientUnits="userSpaceOnUse">
      <stop stop-color="#F857A6"/>
      <stop offset="1" stop-color="#FF5858"/>
    </linearGradient>
    <linearGradient id="paint10_linear_404_7" x1="433.7" y1="51.2" x2="433.7" y2="109.5" gradientUnits="userSpaceOnUse">
      <stop stop-color="#F857A6"/>
      <stop offset="1" stop-color="#FF5858"/>
    </linearGradient>
  </defs>
</svg>
