<svg xmlns="http://www.w3.org/2000/svg" width="182" height="195">
  <g fill="none" fill-rule="evenodd">
    <path fill="#CAFF00" d="M176.887 33.758c-2.81 1.622-3.775 5.208-2.158 8.009l53.14 92.043c18.595 32.206-.43 54.225-8.434 40.36L127.33 14.64c-1.617-2.8-5.206-3.756-8.015-2.135-2.808 1.622-3.775 5.208-2.158 8.009l92.106 159.531c13.599 23.554-8.437 45.4-12.86 37.74L72.723 3.565C71.106.762 67.517-.194 64.709 1.428c-2.81 1.622-3.775 5.207-2.158 8.008l123.68 214.221c5.606 9.71-17.71 23.171-23.316 13.462L39.235 22.899c-1.618-2.801-5.206-3.757-8.015-2.135-2.809 1.621-3.775 5.207-2.158 8.008l123.68 214.22c4.423 7.661-25.514 15.82-39.112-7.733L21.524 75.728c-1.617-2.801-5.206-3.757-8.014-2.136-2.81 1.622-3.775 5.208-2.158 8.008l92.105 159.532c8.005 13.864-20.577 19.33-39.171-12.876l-53.142-92.044c-1.617-2.8-5.205-3.757-8.014-2.135-2.809 1.621-3.775 5.207-2.158 8.008l53.141 92.043c6.319 10.945 94.669 48.414 142.29 20.283 43.64-25.779 47.43-116.444 41.64-126.474L184.9 35.894c-1.617-2.801-5.206-3.757-8.014-2.136z" opacity=".453" style="mix-blend-mode:overlay"/>
    <path fill="#CAFF00" d="M208.887 49.758c-2.81 1.622-3.775 5.208-2.158 8.009l53.14 92.043c18.595 32.206-.43 54.225-8.434 40.36L159.33 30.64c-1.617-2.8-5.206-3.756-8.015-2.135-2.808 1.622-3.775 5.208-2.158 8.009l92.106 159.531c13.599 23.554-8.437 45.4-12.86 37.74l-123.68-214.22c-1.617-2.802-5.206-3.758-8.014-2.136-2.81 1.622-3.775 5.207-2.158 8.008l123.68 214.221c5.606 9.71-17.71 23.171-23.316 13.462L71.235 38.899c-1.618-2.801-5.206-3.757-8.015-2.135-2.809 1.621-3.775 5.207-2.158 8.008l123.68 214.22c4.423 7.661-25.514 15.82-39.112-7.733L53.524 91.728c-1.617-2.801-5.206-3.757-8.014-2.136-2.81 1.622-3.775 5.208-2.158 8.008l92.105 159.532c8.005 13.864-20.577 19.33-39.171-12.876l-53.142-92.044c-1.617-2.8-5.205-3.757-8.014-2.135-2.809 1.621-3.775 5.207-2.158 8.008l53.141 92.043c6.319 10.945 94.669 48.414 142.29 20.283 43.64-25.779 47.43-116.444 41.64-126.474L216.9 51.894c-1.617-2.801-5.206-3.757-8.014-2.136z" opacity=".138" style="mix-blend-mode:overlay"/>
    <path fill="#17A2FF" d="M84.077 84.932c1.85.6-29.124 11.335-32.682 26.405 7.238 2.352 11.785 6.137 13.64 11.355 4.833-4.417 11.737-7.138 20.713-8.162-4.315 4.863-11.9 11.615-14.358 19.182-1.535 4.724-1.082 11.667 1.358 20.83-6.763-2.349-11.053-7.48-12.87-15.393-6.594 5.18-13.053 5.868-19.38 2.062 1.339 9.77 6.594 19.542 15.768 29.316-7.4-2.405-49.117-15.96-46.477-54.988.156-.554.245-1.15.508-1.677 19.592-39.326 71.93-29.531 73.78-28.93zm-59.023 27.086c.788.256 1.703-.388 2.045-1.438.341-1.05-.021-2.11-.809-2.366-.788-.256-1.703.388-2.045 1.439-.34 1.05.021 2.11.809 2.365zm10.969-.503c-.897 3.464-1.856 6.158-2.876 8.08-1.02 1.923-2.958 4.688-5.814 8.296 4.492-1.76 7.45-3.982 8.874-6.665 1.423-2.684 1.362-5.92-.184-9.711z" style="mix-blend-mode:color-burn"/>
    <path fill="#17CAFF" d="M165.236 119.038c1.252.506-20.684 6.34-23.847 16.528 4.9 1.98 7.872 4.81 8.913 8.493 3.55-2.797 8.455-4.323 14.715-4.578-3.213 3.129-8.775 7.394-10.829 12.476-1.281 3.173-1.29 7.97-.028 14.395-4.571-1.953-7.302-5.697-8.192-11.231-4.804 3.233-9.307 3.383-13.508.448.472 6.788 3.655 13.772 9.55 20.954-5.01-2.024-33.253-13.435-29.612-40.148.134-.374.223-.78.43-1.129 15.387-26.07 51.156-16.714 52.408-16.208zM123.35 134.14c.512.206 1.179-.248 1.49-1.017.31-.768.146-1.558-.366-1.765-.512-.207-1.179.248-1.489 1.016-.31.768-.147 1.559.365 1.766zm7.695.434c-.782 2.338-1.571 4.143-2.366 5.415-.796 1.271-2.266 3.076-4.41 5.415 3.191-.986 5.342-2.366 6.452-4.14 1.11-1.775 1.218-4.005.324-6.69z" style="mix-blend-mode:color-burn"/>
    <path fill="#17B5FF" d="M169.563 18.002c1.502.798-26.845 5.39-32.221 17.874 5.88 3.127 9.22 7.085 10.02 11.874 4.843-3.087 11.212-4.394 19.107-3.921-4.465 3.55-12.038 8.237-15.316 14.403-2.047 3.85-2.72 9.917-2.02 18.202-5.47-3.05-8.383-8.132-8.738-15.244-6.478 3.479-12.152 3.096-17.023-1.15-.343 8.645 2.691 17.883 9.102 27.715-6.01-3.197-39.9-21.215-31.644-54.538.219-.456.387-.957.695-1.373C124.439.827 168.06 17.203 169.563 18.002zM114.31 32.769c.731.39 1.744-.086 2.263-1.061.518-.976.346-2.082-.386-2.47-.731-.39-1.744.086-2.263 1.061-.519.976-.346 2.081.386 2.47zm9.965 1.018c-1.305 2.858-2.544 5.04-3.718 6.548-1.174 1.506-3.268 3.603-6.282 6.288 4.142-.842 7.032-2.314 8.67-4.417 1.639-2.103 2.082-4.91 1.33-8.419z" style="mix-blend-mode:color-burn"/>
  </g>
</svg>
