<svg width="200" height="270" xmlns="http://www.w3.org/2000/svg" xmlns:xlink="http://www.w3.org/1999/xlink"><defs><rect id="a" width="200" height="270" rx="12"/></defs><g fill="none" fill-rule="evenodd"><mask id="b" fill="#fff"><use xlink:href="#a"/></mask><g mask="url(#b)"><path fill="#FEFF49" opacity=".55" style="mix-blend-mode:soft-light" d="M70.017 168.574l121.707 32.61-43.74 163.242-121.708-32.61z"/><path fill="#FEFF49" opacity=".7" style="mix-blend-mode:soft-light" d="M46.933 142.458l124.086 21.88-31.952 181.204-124.086-21.88z"/><path fill="#FEFF73" opacity=".85" style="mix-blend-mode:soft-light" d="M18.348 116.907l125.52 10.981-18.216 208.205L.132 325.112z"/><path fill="#FEFF57" d="M-14 92h126v239H-14z"/></g><g mask="url(#b)" fill="#FFF"><path d="M185.287 149.53c.105.206.115.438.03.697-.19.587-.662 1.072-1.417 1.456l-3.36 1.713 1.72 3.334c.39.738.493 1.39.308 1.96-.207.639-.63.854-1.269.647-.586-.19-1.063-.66-1.43-1.41l-1.661-3.343-3.309 1.729c-.737.39-1.399.49-1.985.299-.622-.202-.831-.613-.63-1.234.18-.553.658-1.027 1.436-1.423l3.3-1.703-1.712-3.36c-.385-.755-.484-1.417-.3-1.986.197-.604.597-.808 1.2-.612.605.197 1.099.672 1.483 1.426l1.652 3.37 3.37-1.738c.77-.38 1.45-.473 2.037-.283.259.085.438.238.537.461z"/></g><g mask="url(#b)" fill="#FFF"><path d="M178.359 109.24c-.108.296-.33.522-.666.679-.762.355-1.686.336-2.77-.06l-4.834-1.758-1.725 4.817c-.373 1.075-.929 1.784-1.669 2.13-.83.386-1.438.165-1.825-.665-.355-.762-.33-1.675.075-2.737l1.79-4.766-4.8-1.692c-1.075-.372-1.79-.94-2.146-1.702-.376-.807-.16-1.399.646-1.775.718-.335 1.635-.299 2.753.108l4.768 1.708 1.76-4.833c.394-1.085.962-1.8 1.701-2.145.785-.366 1.36-.157 1.727.628.365.785.351 1.72-.044 2.805l-1.824 4.781 4.867 1.743c1.095.418 1.82 1.008 2.176 1.77.157.336.17.658.04.964z"/></g><g mask="url(#b)" fill="#FFF"><path d="M149.745 69.053c-.097.452-.373.826-.83 1.122-1.034.672-2.38.832-4.036.48l-7.378-1.568-1.523 7.348c-.321 1.637-.984 2.781-1.989 3.433-1.126.732-2.054.534-2.785-.592-.672-1.034-.822-2.365-.45-3.99l1.627-7.288-7.319-1.477c-1.636-.321-2.79-1-3.463-2.034-.711-1.096-.52-2 .576-2.71.974-.633 2.314-.768 4.021-.405l7.273 1.507 1.569-7.379c.352-1.656 1.03-2.81 2.034-3.462 1.065-.692 1.944-.505 2.635.56.692 1.065.862 2.425.51 4.082l-1.674 7.317 7.424 1.538c1.677.383 2.85 1.091 3.523 2.126.296.456.381.92.255 1.392z"/></g></g></svg>
