<svg viewBox="0 0 1032 100" preserveAspectRatio="xMinYMin meet" xmlns="http://www.w3.org/2000/svg">
  <symbol id="a">
    <rect width="2" height="100" rx="1"/>
    <rect x="10" y="20" width="2" height="60" rx="1"/>
    <rect x="21" y="20" width="2" height="60" rx="1"/>
    <rect x="31" y="20" width="2" height="60" rx="1"/>
    <rect x="41" y="20" width="2" height="60" rx="1"/>
    <rect x="52" y="15" width="2" height="70" rx="1"/>
    <rect x="62" y="20" width="2" height="60" rx="1"/>
    <rect x="72" y="20" width="2" height="60" rx="1"/>
    <rect x="82" y="20" width="2" height="60" rx="1"/>
    <rect x="93" y="20" width="2" height="60" rx="1"/>
    <rect x="103" width="2" height="100" rx="1"/>
  </symbol>
  <g fill-rule="evenodd" fill="#eeeeee">
    <use href="#a"/>
    <use href="#a" transform="translate(103)"/>
    <use href="#a" transform="translate(206)"/>
    <use href="#a" transform="translate(309)"/>
    <use href="#a" transform="translate(412)"/>
    <use href="#a" transform="translate(515)"/>
    <use href="#a" transform="translate(618)"/>
    <use href="#a" transform="translate(721)"/>
    <use href="#a" transform="translate(824)"/>
    <use href="#a" transform="translate(927)"/>
  </g>
</svg>
